<svg width="36" height="36" viewBox="0 0 36 36" fill="none" xmlns="http://www.w3.org/2000/svg">
<path opacity="0.4" d="M5.85211 4.14575V21.602C5.85211 23.0312 6.52295 24.3874 7.67503 25.2478L15.2729 30.9353C16.8917 32.1457 19.1229 32.1457 20.7417 30.9353L28.3396 25.2478C29.4917 24.3874 30.1625 23.0312 30.1625 21.602V4.14575H5.85211Z" fill="#E44A6C"/>
<path d="M32.5834 5.2395H3.41669C2.81877 5.2395 2.32294 4.74367 2.32294 4.14575C2.32294 3.54784 2.81877 3.052 3.41669 3.052H32.5834C33.1813 3.052 33.6771 3.54784 33.6771 4.14575C33.6771 4.74367 33.1813 5.2395 32.5834 5.2395Z" fill="#E44A6C"/>
<path d="M23.8334 13.2605H12.1667C11.5688 13.2605 11.0729 12.7647 11.0729 12.1667C11.0729 11.5688 11.5688 11.073 12.1667 11.073H23.8334C24.4313 11.073 24.9271 11.5688 24.9271 12.1667C24.9271 12.7647 24.4313 13.2605 23.8334 13.2605Z" fill="#E44A6C"/>
<path d="M23.8334 20.552H12.1667C11.5688 20.552 11.0729 20.0562 11.0729 19.4583C11.0729 18.8603 11.5688 18.3645 12.1667 18.3645H23.8334C24.4313 18.3645 24.9271 18.8603 24.9271 19.4583C24.9271 20.0562 24.4313 20.552 23.8334 20.552Z" fill="#E44A6C"/>
</svg>
