<svg width="112" height="379" viewBox="0 0 112 379" fill="none" xmlns="http://www.w3.org/2000/svg">
<g filter="url(#filter0_b_68_5269)">
<path fill-rule="evenodd" clip-rule="evenodd" d="M0.292893 0.292893C0 0.585786 0 1.05719 0 2V377C0 377.943 0 378.414 0.292893 378.707C0.585786 379 1.05719 379 2 379H53C67.1421 379 74.2132 379 78.6066 374.607C83 370.213 83 363.142 83 349V241.069C83 231.945 89.6044 224.375 96.8269 218.801C105.923 211.781 111.782 200.77 111.782 188.391C111.782 176.012 105.923 165.001 96.8269 157.981C89.6044 152.407 83 144.836 83 135.713V30C83 15.8579 83 8.7868 78.6066 4.3934C74.2132 0 67.1421 0 53 0H2C1.05719 0 0.585786 0 0.292893 0.292893Z" fill="white" fill-opacity="0.1"/>
</g>
<defs>
<filter id="filter0_b_68_5269" x="-44" y="-44" width="199.782" height="467" filterUnits="userSpaceOnUse" color-interpolation-filters="sRGB">
<feFlood flood-opacity="0" result="BackgroundImageFix"/>
<feGaussianBlur in="BackgroundImageFix" stdDeviation="22"/>
<feComposite in2="SourceAlpha" operator="in" result="effect1_backgroundBlur_68_5269"/>
<feBlend mode="normal" in="SourceGraphic" in2="effect1_backgroundBlur_68_5269" result="shape"/>
</filter>
</defs>
</svg>
