<svg width="36" height="36" viewBox="0 0 36 36" fill="none" xmlns="http://www.w3.org/2000/svg">
<path d="M25.2916 7.73341V18.1167C25.2916 21.0188 23.2354 22.1417 20.7125 20.6251L18.7875 19.4584C18.35 19.1959 17.65 19.1959 17.2125 19.4584L15.2875 20.6251C12.7646 22.1417 10.7083 21.0188 10.7083 18.1167V7.77716C10.7229 4.87508 12.1812 3.41675 15.0833 3.41675H20.9166C23.8041 3.41675 25.2625 4.8605 25.2916 7.73341Z" fill="#4DD5A0"/>
<path opacity="0.4" d="M32.5834 17.8542V22.273C32.5834 29.6376 29.6667 32.5834 22.375 32.5834H13.625C6.33335 32.5834 3.41669 29.6376 3.41669 22.273V17.8542C3.41669 11.6709 5.47294 8.6084 10.4459 7.77715H10.7084V18.1167C10.7084 21.0188 12.7646 22.1417 15.2875 20.6251L17.2125 19.4584C17.65 19.1959 18.35 19.1959 18.7875 19.4584L20.7125 20.6251C23.2354 22.1417 25.2917 21.0188 25.2917 18.1167V7.7334C30.4542 8.49173 32.5834 11.5688 32.5834 17.8542Z" fill="#4DD5A0"/>
</svg>
