<svg width="36" height="36" viewBox="0 0 36 36" fill="none" xmlns="http://www.w3.org/2000/svg">
<path d="M32.5834 31.4895H3.41669C2.81877 31.4895 2.32294 31.9853 2.32294 32.5833C2.32294 33.1812 2.81877 33.677 3.41669 33.677H32.5834C33.1813 33.677 33.6771 33.1812 33.6771 32.5833C33.6771 31.9853 33.1813 31.4895 32.5834 31.4895Z" fill="#FAC323"/>
<path opacity="0.4" d="M25.2917 3.41675H10.7083C6.33333 3.41675 4.875 6.02716 4.875 9.25008V32.5834H31.125V9.25008C31.125 6.02716 29.6667 3.41675 25.2917 3.41675Z" fill="#FAC323"/>
<path d="M15.0833 25.6563H10.7083C10.1104 25.6563 9.61456 25.1604 9.61456 24.5625C9.61456 23.9646 10.1104 23.4688 10.7083 23.4688H15.0833C15.6812 23.4688 16.1771 23.9646 16.1771 24.5625C16.1771 25.1604 15.6812 25.6563 15.0833 25.6563Z" fill="#FAC323"/>
<path d="M25.2917 25.6563H20.9167C20.3188 25.6563 19.8229 25.1604 19.8229 24.5625C19.8229 23.9646 20.3188 23.4688 20.9167 23.4688H25.2917C25.8896 23.4688 26.3854 23.9646 26.3854 24.5625C26.3854 25.1604 25.8896 25.6563 25.2917 25.6563Z" fill="#FAC323"/>
<path d="M15.0833 19.0938H10.7083C10.1104 19.0938 9.61456 18.5979 9.61456 18C9.61456 17.4021 10.1104 16.9062 10.7083 16.9062H15.0833C15.6812 16.9062 16.1771 17.4021 16.1771 18C16.1771 18.5979 15.6812 19.0938 15.0833 19.0938Z" fill="#FAC323"/>
<path d="M25.2917 19.0938H20.9167C20.3188 19.0938 19.8229 18.5979 19.8229 18C19.8229 17.4021 20.3188 16.9062 20.9167 16.9062H25.2917C25.8896 16.9062 26.3854 17.4021 26.3854 18C26.3854 18.5979 25.8896 19.0938 25.2917 19.0938Z" fill="#FAC323"/>
<path d="M15.0833 12.5313H10.7083C10.1104 12.5313 9.61456 12.0354 9.61456 11.4375C9.61456 10.8396 10.1104 10.3438 10.7083 10.3438H15.0833C15.6812 10.3438 16.1771 10.8396 16.1771 11.4375C16.1771 12.0354 15.6812 12.5313 15.0833 12.5313Z" fill="#FAC323"/>
<path d="M25.2917 12.5313H20.9167C20.3188 12.5313 19.8229 12.0354 19.8229 11.4375C19.8229 10.8396 20.3188 10.3438 20.9167 10.3438H25.2917C25.8896 10.3438 26.3854 10.8396 26.3854 11.4375C26.3854 12.0354 25.8896 12.5313 25.2917 12.5313Z" fill="#FAC323"/>
</svg>
