<svg width="36" height="36" viewBox="0 0 36 36" fill="none" xmlns="http://www.w3.org/2000/svg">
<path d="M24.9271 5.69174V3.41675C24.9271 2.81883 24.4312 2.323 23.8333 2.323C23.2354 2.323 22.7396 2.81883 22.7396 3.41675V5.60425H13.2604V3.41675C13.2604 2.81883 12.7646 2.323 12.1667 2.323C11.5687 2.323 11.0729 2.81883 11.0729 3.41675V5.69174C7.13541 6.05633 5.22501 8.40424 4.93334 11.8897C4.90418 12.3126 5.25418 12.6626 5.66251 12.6626H30.3375C30.7604 12.6626 31.1104 12.298 31.0667 11.8897C30.775 8.40424 28.8646 6.05633 24.9271 5.69174Z" fill="#3B9AAC"/>
<path opacity="0.4" d="M29.6667 14.8501C30.4688 14.8501 31.125 15.5063 31.125 16.3084V25.2918C31.125 29.6668 28.9375 32.5834 23.8333 32.5834H12.1667C7.0625 32.5834 4.875 29.6668 4.875 25.2918V16.3084C4.875 15.5063 5.53125 14.8501 6.33333 14.8501H29.6667Z" fill="#3B9AAC"/>
<path d="M12.8958 22.375C12.7063 22.375 12.5167 22.3312 12.3417 22.2583C12.1667 22.1854 12.0063 22.0833 11.8604 21.952C11.7292 21.8062 11.6271 21.6458 11.5541 21.4708C11.4812 21.2958 11.4375 21.1062 11.4375 20.9166C11.4375 20.7271 11.4812 20.5375 11.5541 20.3625C11.6271 20.1875 11.7292 20.0271 11.8604 19.8812C12.0063 19.75 12.1667 19.6479 12.3417 19.575C12.6917 19.4291 13.1 19.4291 13.45 19.575C13.625 19.6479 13.7854 19.75 13.9312 19.8812C14.0625 20.0271 14.1646 20.1875 14.2375 20.3625C14.3104 20.5375 14.3542 20.7271 14.3542 20.9166C14.3542 21.1062 14.3104 21.2958 14.2375 21.4708C14.1646 21.6458 14.0625 21.8062 13.9312 21.952C13.7854 22.0833 13.625 22.1854 13.45 22.2583C13.275 22.3312 13.0854 22.375 12.8958 22.375Z" fill="#3B9AAC"/>
<path d="M18 22.3749C17.8104 22.3749 17.6208 22.3312 17.4458 22.2583C17.2708 22.1854 17.1104 22.0832 16.9646 21.952C16.7021 21.6749 16.5417 21.2958 16.5417 20.9166C16.5417 20.5374 16.7021 20.1583 16.9646 19.8812C17.1104 19.7499 17.2708 19.6478 17.4458 19.5749C17.7958 19.4145 18.2042 19.4145 18.5542 19.5749C18.7292 19.6478 18.8896 19.7499 19.0354 19.8812C19.2979 20.1583 19.4584 20.5374 19.4584 20.9166C19.4584 21.2958 19.2979 21.6749 19.0354 21.952C18.8896 22.0832 18.7292 22.1854 18.5542 22.2583C18.3792 22.3312 18.1896 22.3749 18 22.3749Z" fill="#3B9AAC"/>
<path d="M12.8958 27.4792C12.7063 27.4792 12.5167 27.4355 12.3417 27.3626C12.1667 27.2897 12.0063 27.1875 11.8604 27.0563C11.5979 26.7792 11.4375 26.4001 11.4375 26.0209C11.4375 25.6417 11.5979 25.2626 11.8604 24.9855C12.0063 24.8542 12.1667 24.7521 12.3417 24.6792C12.6917 24.5334 13.1 24.5334 13.45 24.6792C13.625 24.7521 13.7854 24.8542 13.9312 24.9855C14.1937 25.2626 14.3542 25.6417 14.3542 26.0209C14.3542 26.4001 14.1937 26.7792 13.9312 27.0563C13.7854 27.1875 13.625 27.2897 13.45 27.3626C13.275 27.4355 13.0854 27.4792 12.8958 27.4792Z" fill="#3B9AAC"/>
</svg>
