<svg width="20" height="21" viewBox="0 0 20 21" fill="none" xmlns="http://www.w3.org/2000/svg">
<path d="M18.3083 15.7748C18.3083 16.0748 18.2416 16.3832 18.1 16.6832C17.9583 16.9832 17.775 17.2665 17.5333 17.5332C17.125 17.9832 16.675 18.3082 16.1666 18.5165C15.6666 18.7248 15.125 18.8332 14.5416 18.8332C13.6916 18.8332 12.7833 18.6332 11.825 18.2248C10.8666 17.8165 9.90829 17.2665 8.95829 16.5748C7.99996 15.8748 7.09163 15.0998 6.22496 14.2415C5.36663 13.3748 4.59163 12.4665 3.89996 11.5165C3.21663 10.5665 2.66663 9.6165 2.26663 8.67484C1.86663 7.72484 1.66663 6.8165 1.66663 5.94984C1.66663 5.38317 1.76663 4.8415 1.96663 4.3415C2.16663 3.83317 2.48329 3.3665 2.92496 2.94984C3.45829 2.42484 4.04163 2.1665 4.65829 2.1665C4.89163 2.1665 5.12496 2.2165 5.33329 2.3165C5.54996 2.4165 5.74163 2.5665 5.89163 2.78317L7.82496 5.50817C7.97496 5.7165 8.08329 5.90817 8.15829 6.0915C8.23329 6.2665 8.27496 6.4415 8.27496 6.59984C8.27496 6.79984 8.21663 6.99984 8.09996 7.1915C7.99163 7.38317 7.83329 7.58317 7.63329 7.78317L6.99996 8.4415C6.90829 8.53317 6.86663 8.6415 6.86663 8.77484C6.86663 8.8415 6.87496 8.89984 6.89163 8.9665C6.91663 9.03317 6.94163 9.08317 6.95829 9.13317C7.10829 9.40817 7.36663 9.7665 7.73329 10.1998C8.10829 10.6332 8.50829 11.0748 8.94163 11.5165C9.39163 11.9582 9.82496 12.3665 10.2666 12.7415C10.7 13.1082 11.0583 13.3582 11.3416 13.5082C11.3833 13.5248 11.4333 13.5498 11.4916 13.5748C11.5583 13.5998 11.625 13.6082 11.7 13.6082C11.8416 13.6082 11.95 13.5582 12.0416 13.4665L12.675 12.8415C12.8833 12.6332 13.0833 12.4748 13.275 12.3748C13.4666 12.2582 13.6583 12.1998 13.8666 12.1998C14.025 12.1998 14.1916 12.2332 14.375 12.3082C14.5583 12.3832 14.75 12.4915 14.9583 12.6332L17.7166 14.5915C17.9333 14.7415 18.0833 14.9165 18.175 15.1248C18.2583 15.3332 18.3083 15.5415 18.3083 15.7748Z" stroke="white" stroke-width="1.5" stroke-miterlimit="10"/>
<path d="M15.4167 7.99967C15.4167 7.49967 15.025 6.73301 14.4417 6.10801C13.9083 5.53301 13.2 5.08301 12.5 5.08301" stroke="white" stroke-width="1.5" stroke-linecap="round" stroke-linejoin="round"/>
<path d="M18.3333 7.99984C18.3333 4.77484 15.725 2.1665 12.5 2.1665" stroke="white" stroke-width="1.5" stroke-linecap="round" stroke-linejoin="round"/>
</svg>
