<svg width="19" height="19" viewBox="0 0 19 19" fill="none" xmlns="http://www.w3.org/2000/svg">
<path opacity="0.4" d="M13.5371 1.58331H10.2121C7.48082 1.58331 6.37249 2.6679 6.34082 5.34373H8.78707C12.1121 5.34373 13.6558 6.88748 13.6558 10.2125V12.6587C16.3317 12.6271 17.4162 11.5187 17.4162 8.78748V5.46248C17.4162 2.69165 16.3079 1.58331 13.5371 1.58331Z" fill="#FAFBFC"/>
<path d="M8.78717 6.33331H5.46217C2.69134 6.33331 1.58301 7.44165 1.58301 10.2125V13.5375C1.58301 16.3083 2.69134 17.4166 5.46217 17.4166H8.78717C11.558 17.4166 12.6663 16.3083 12.6663 13.5375V10.2125C12.6663 7.44165 11.558 6.33331 8.78717 6.33331ZM9.72926 10.8062L6.79217 13.7433C6.68134 13.8541 6.53884 13.9096 6.38842 13.9096C6.23801 13.9096 6.09551 13.8541 5.98467 13.7433L4.51217 12.2708C4.29051 12.0491 4.29051 11.6929 4.51217 11.4712C4.73384 11.2496 5.09009 11.2496 5.31176 11.4712L6.38051 12.54L8.92176 9.99873C9.14343 9.77706 9.49967 9.77706 9.72134 9.99873C9.94301 10.2204 9.95092 10.5846 9.72926 10.8062Z" fill="#FAFBFC"/>
</svg>
