<svg width="17" height="17" viewBox="0 0 17 17" fill="none" xmlns="http://www.w3.org/2000/svg">
<path opacity="0.4" d="M11.0358 8.49994C11.0358 9.90244 9.90244 11.0358 8.49994 11.0358C7.09744 11.0358 5.96411 9.90244 5.96411 8.49994C5.96411 7.09744 7.09744 5.96411 8.49994 5.96411C9.90244 5.96411 11.0358 7.09744 11.0358 8.49994Z" stroke="white" stroke-width="1.5" stroke-linecap="round" stroke-linejoin="round"/>
<path d="M8.49989 14.3579C11.0003 14.3579 13.3307 12.8846 14.9528 10.3346C15.5903 9.33584 15.5903 7.65709 14.9528 6.65834C13.3307 4.10834 11.0003 2.63501 8.49989 2.63501C5.99947 2.63501 3.66906 4.10834 2.04697 6.65834C1.40947 7.65709 1.40947 9.33584 2.04697 10.3346C3.66906 12.8846 5.99947 14.3579 8.49989 14.3579Z" stroke="white" stroke-width="1.5" stroke-linecap="round" stroke-linejoin="round"/>
</svg>
