<svg width="8" height="7" viewBox="0 0 8 7" fill="none" xmlns="http://www.w3.org/2000/svg">
<path d="M3.24483 0.889615L6.05764 4.62495C6.12031 4.70861 6.11431 4.81571 6.0403 4.89404C5.70629 5.24892 5.3676 5.56597 5.08292 5.77752C5.08292 5.77752 4.85491 5.95976 4.71024 6.03862C4.51289 6.16597 4.25488 6.22725 4.0042 6.22725C3.72285 6.22725 3.45684 6.16011 3.24416 6.02636C3.20616 5.99599 3.03882 5.88036 2.90214 5.77113C2.05144 5.13383 0.646032 3.47025 0.220011 2.59529C0.151341 2.46794 0.0080004 2.12798 0 1.9516C0 1.78162 0.0453356 1.6175 0.144674 1.45977C0.281347 1.26581 0.493358 1.11395 0.744704 1.02869C0.919379 0.973806 1.44341 0.889082 1.45874 0.889082C1.83276 0.834198 2.35812 0.793168 2.97148 0.772919C3.08149 0.769189 3.18816 0.814482 3.24483 0.889615" fill="#626E94"/>
<path opacity="0.4" d="M4.75982 1.13931C4.63514 0.97466 4.79448 0.767378 5.03383 0.775371C5.59519 0.795086 6.08988 0.829189 6.4579 0.870752C6.4659 0.877147 7.1186 0.961871 7.33928 1.05938C7.7493 1.22937 7.99998 1.56293 7.99998 1.92155V1.95139C7.99264 2.18265 7.74197 2.67448 7.72663 2.67448C7.60062 2.92225 7.38728 3.2457 7.1306 3.59366C7.0146 3.75032 6.72991 3.75405 6.61191 3.59739L4.75982 1.13931Z" fill="#626E94"/>
</svg>
