<svg width="36" height="36" viewBox="0 0 36 36" fill="none" xmlns="http://www.w3.org/2000/svg">
<path d="M30.4546 28.267C30.2358 28.4858 29.9587 28.5879 29.6817 28.5879C29.4046 28.5879 29.1275 28.4858 28.9087 28.267L21.69 21.0483L22.4629 20.2754L23.2358 19.5024L30.4546 26.7212C30.8775 27.1441 30.8775 27.8441 30.4546 28.267Z" fill="#901BEF"/>
<path opacity="0.4" d="M9.93593 14.0334L18.3943 22.4917C18.963 23.0605 18.963 23.9792 18.3943 24.548L17.0818 25.875C15.9005 27.0417 14.0338 27.0417 12.8672 25.875L6.53801 19.5459C5.38593 18.3938 5.38593 16.5125 6.53801 15.3459L7.8651 14.0188C8.43385 13.4646 9.36718 13.4646 9.93593 14.0334Z" fill="#901BEF"/>
<path d="M27.6097 15.361L22.0534 20.9027C21.4701 21.486 20.5368 21.486 19.9534 20.9027L11.5389 12.4881C10.9555 11.9048 10.9555 10.9714 11.5389 10.3881L17.0951 4.83184C18.2472 3.67975 20.1284 3.67975 21.2951 4.83184L27.6243 11.161C28.7618 12.3131 28.7618 14.1798 27.6097 15.361Z" fill="#901BEF"/>
<path d="M12.1667 32.2188H3.41669C2.81877 32.2188 2.32294 31.7229 2.32294 31.125C2.32294 30.5271 2.81877 30.0312 3.41669 30.0312H12.1667C12.7646 30.0312 13.2604 30.5271 13.2604 31.125C13.2604 31.7229 12.7646 32.2188 12.1667 32.2188Z" fill="#901BEF"/>
</svg>
