<svg width="20" height="21" viewBox="0 0 20 21" fill="none" xmlns="http://www.w3.org/2000/svg">
<path d="M7.08329 16.3332H6.66663C3.33329 16.3332 1.66663 15.4998 1.66663 11.3332V7.1665C1.66663 3.83317 3.33329 2.1665 6.66663 2.1665H13.3333C16.6666 2.1665 18.3333 3.83317 18.3333 7.1665V11.3332C18.3333 14.6665 16.6666 16.3332 13.3333 16.3332H12.9166C12.6583 16.3332 12.4083 16.4582 12.25 16.6665L11 18.3332C10.45 19.0665 9.54996 19.0665 8.99996 18.3332L7.74996 16.6665C7.61663 16.4832 7.30829 16.3332 7.08329 16.3332Z" stroke="white" stroke-width="1.5" stroke-miterlimit="10" stroke-linecap="round" stroke-linejoin="round"/>
<path d="M13.3304 9.66667H13.3379" stroke="white" stroke-width="2" stroke-linecap="round" stroke-linejoin="round"/>
<path d="M9.9962 9.66667H10.0037" stroke="white" stroke-width="2" stroke-linecap="round" stroke-linejoin="round"/>
<path d="M6.66209 9.66667H6.66957" stroke="white" stroke-width="2" stroke-linecap="round" stroke-linejoin="round"/>
</svg>
