<svg width="20" height="20" viewBox="0 0 20 20" fill="none" xmlns="http://www.w3.org/2000/svg">
<path d="M14.575 8.00001L4.66671 13.975C4.08337 14.325 3.33337 13.9083 3.33337 13.225V6.55834C3.33337 3.65001 6.47504 1.83334 9.00004 3.28334L12.825 5.48334L14.5667 6.48334C15.1417 6.82501 15.15 7.65835 14.575 8.00001Z" fill="#E3C6FB"/>
<path d="M15.075 12.8833L11.7 14.8333L8.33334 16.775C7.125 17.4666 5.75834 17.325 4.76667 16.625C4.28334 16.2916 4.34167 15.55 4.85001 15.25L15.4417 8.89997C15.9417 8.59997 16.6 8.88331 16.6917 9.45831C16.9 10.75 16.3667 12.1416 15.075 12.8833Z" fill="#E3C6FB"/>
</svg>
