<svg width="17" height="17" viewBox="0 0 17 17" fill="none" xmlns="http://www.w3.org/2000/svg">
<path d="M13.5078 13.508C16.2774 10.7384 16.2774 6.25469 13.5078 3.49219" stroke="white" stroke-width="1.5" stroke-linecap="round" stroke-linejoin="round"/>
<path d="M3.49198 3.49219C0.722399 6.26177 0.722399 10.7455 3.49198 13.508" stroke="white" stroke-width="1.5" stroke-linecap="round" stroke-linejoin="round"/>
<path d="M6.1626 15.1653C6.92051 15.4274 7.70676 15.5549 8.50009 15.5549C9.29342 15.5478 10.0797 15.4274 10.8376 15.1653" stroke="white" stroke-width="1.5" stroke-linecap="round" stroke-linejoin="round"/>
<path d="M6.1626 1.83469C6.92051 1.5726 7.70676 1.44507 8.50009 1.44507C9.29342 1.44507 10.0797 1.5726 10.8376 1.83469" stroke="white" stroke-width="1.5" stroke-linecap="round" stroke-linejoin="round"/>
<path opacity="0.4" d="M6.19092 8.50002V7.31711C6.19092 5.84378 7.23218 5.24169 8.50718 5.97835L9.53425 6.57337L10.5613 7.16835C11.8363 7.90501 11.8363 9.1092 10.5613 9.84587L9.53425 10.4408L8.50718 11.0359C7.23218 11.7725 6.19092 11.1704 6.19092 9.6971V8.50002Z" stroke="white" stroke-width="1.5" stroke-miterlimit="10" stroke-linecap="round" stroke-linejoin="round"/>
</svg>
