<svg width="40" height="40" viewBox="0 0 40 40" fill="none" xmlns="http://www.w3.org/2000/svg">
<path fill-rule="evenodd" clip-rule="evenodd" d="M0 20.0116C0 8.9725 8.97683 0 20 0C31.0232 0 40 8.9725 40 20.0116C40 31.0275 31.0232 40 20 40C8.97683 40 0 31.0275 0 20.0116ZM27.3369 22.0355C27.5492 21.8232 27.8195 21.4952 27.8774 21.418C28.1863 21.0128 28.3407 20.5111 28.3407 20.0113C28.3407 19.4498 28.167 18.9288 27.8388 18.5043C27.8119 18.4775 27.7592 18.4201 27.6906 18.3454C27.5622 18.2057 27.3779 18.005 27.2017 17.829C25.6187 16.131 21.4875 13.3524 19.3253 12.5034C18.9971 12.3702 18.167 12.0789 17.723 12.0596C17.2983 12.0596 16.8929 12.156 16.5068 12.349C16.0241 12.6191 15.638 13.0437 15.4257 13.5453C15.2905 13.8927 15.0782 14.9346 15.0782 14.9539C14.8658 16.0924 14.75 17.9448 14.75 19.9901C14.75 21.9409 14.8658 23.7142 15.0396 24.8719C15.0444 24.8767 15.061 24.9595 15.0868 25.0881C15.1652 25.4792 15.3286 26.2939 15.5029 26.6278C15.9276 27.4382 16.7577 27.9399 17.6458 27.9399H17.723C18.3021 27.9206 19.5183 27.419 19.5183 27.3997C21.5647 26.5506 25.5994 23.9071 27.221 22.1512L27.3369 22.0355Z" fill="white"/>
</svg>
