<svg width="17" height="17" viewBox="0 0 17 17" fill="none" xmlns="http://www.w3.org/2000/svg">
<path d="M14.3166 6.4625H10.0874V2.23334C10.0874 1.2425 9.26578 0.420837 8.27494 0.420837C7.28411 0.420837 6.46244 1.2425 6.46244 2.23334V6.4625H2.23328C1.24244 6.4625 0.420776 7.28417 0.420776 8.275C0.420776 9.26584 1.24244 10.0875 2.23328 10.0875H6.46244V14.3167C6.46244 15.3075 7.28411 16.1292 8.27494 16.1292C9.26578 16.1292 10.0874 15.3075 10.0874 14.3167V10.0875H14.3166C15.3074 10.0875 16.1291 9.26584 16.1291 8.275C16.1291 7.28417 15.3074 6.4625 14.3166 6.4625Z" fill="white"/>
</svg>
