<svg width="58" height="58" viewBox="0 0 58 58" fill="none" xmlns="http://www.w3.org/2000/svg">
<path opacity="0.4" d="M27.7917 50.75C40.4712 50.75 50.75 40.4712 50.75 27.7916C50.75 15.1121 40.4712 4.83331 27.7917 4.83331C15.1122 4.83331 4.83337 15.1121 4.83337 27.7916C4.83337 40.4712 15.1122 50.75 27.7917 50.75Z" fill="white"/>
<path d="M51.4751 53.1667C51.0401 53.1667 50.6051 52.9975 50.2909 52.6833L45.7959 48.1883C45.1434 47.5358 45.1434 46.4725 45.7959 45.7958C46.4484 45.1433 47.5117 45.1433 48.1884 45.7958L52.6834 50.2908C53.3359 50.9433 53.3359 52.0067 52.6834 52.6833C52.3451 52.9975 51.9101 53.1667 51.4751 53.1667Z" fill="white"/>
<path d="M34.3166 26.4625H30.0874V22.2333C30.0874 21.2425 29.2658 20.4208 28.2749 20.4208C27.2841 20.4208 26.4624 21.2425 26.4624 22.2333V26.4625H22.2333C21.2424 26.4625 20.4208 27.2842 20.4208 28.275C20.4208 29.2658 21.2424 30.0875 22.2333 30.0875H26.4624V34.3167C26.4624 35.3075 27.2841 36.1292 28.2749 36.1292C29.2658 36.1292 30.0874 35.3075 30.0874 34.3167V30.0875H34.3166C35.3074 30.0875 36.1291 29.2658 36.1291 28.275C36.1291 27.2842 35.3074 26.4625 34.3166 26.4625Z" fill="white"/>
</svg>
