<svg width="42" height="41" viewBox="0 0 42 41" fill="none" xmlns="http://www.w3.org/2000/svg">
<g filter="url(#filter0_d_158_5424)">
<path d="M28.5 31.5H13.5C7.5 31.5 6 30 6 24V12C6 6.00002 7.5 4.50002 13.5 4.50002H28.5C34.5 4.50002 36 6.00002 36 12V24C36 30 34.5 31.5 28.5 31.5Z" stroke="white" stroke-width="2.5" stroke-linecap="round" stroke-linejoin="round"/>
<path d="M24 12H31.5" stroke="white" stroke-width="2.5" stroke-linecap="round" stroke-linejoin="round"/>
<path d="M25.5 18H31.5" stroke="white" stroke-width="2.5" stroke-linecap="round" stroke-linejoin="round"/>
<path d="M28.5 24H31.5" stroke="white" stroke-width="2.5" stroke-linecap="round" stroke-linejoin="round"/>
<path d="M15.7502 16.935C17.2496 16.935 18.4652 15.7195 18.4652 14.22C18.4652 12.7206 17.2496 11.505 15.7502 11.505C14.2507 11.505 13.0352 12.7206 13.0352 14.22C13.0352 15.7195 14.2507 16.935 15.7502 16.935Z" stroke="white" stroke-width="2.5" stroke-linecap="round" stroke-linejoin="round"/>
<path d="M21 24.495C20.79 22.32 19.065 20.61 16.89 20.415C16.14 20.34 15.375 20.34 14.61 20.415C12.435 20.625 10.71 22.32 10.5 24.495" stroke="white" stroke-width="2.5" stroke-linecap="round" stroke-linejoin="round"/>
</g>
<defs>
<filter id="filter0_d_158_5424" x="-1" y="1.52588e-05" width="44" height="44" filterUnits="userSpaceOnUse" color-interpolation-filters="sRGB">
<feFlood flood-opacity="0" result="BackgroundImageFix"/>
<feColorMatrix in="SourceAlpha" type="matrix" values="0 0 0 0 0 0 0 0 0 0 0 0 0 0 0 0 0 0 127 0" result="hardAlpha"/>
<feOffset dy="4"/>
<feGaussianBlur stdDeviation="2"/>
<feComposite in2="hardAlpha" operator="out"/>
<feColorMatrix type="matrix" values="0 0 0 0 0 0 0 0 0 0 0 0 0 0 0 0 0 0 0.25 0"/>
<feBlend mode="normal" in2="BackgroundImageFix" result="effect1_dropShadow_158_5424"/>
<feBlend mode="normal" in="SourceGraphic" in2="effect1_dropShadow_158_5424" result="shape"/>
</filter>
</defs>
</svg>
