<svg width="40" height="43" viewBox="0 0 40 43" fill="none" xmlns="http://www.w3.org/2000/svg">
<g filter="url(#filter0_d_158_5460)">
<path d="M17.0743 3.79502L8.0443 9.69002C5.1493 11.58 5.1493 15.81 8.0443 17.7L17.0743 23.595C18.6943 24.66 21.3643 24.66 22.9843 23.595L31.9693 17.7C34.8493 15.81 34.8493 11.595 31.9693 9.70502L22.9843 3.81002C21.3643 2.73002 18.6943 2.73002 17.0743 3.79502Z" stroke="white" stroke-width="2.5" stroke-linecap="round" stroke-linejoin="round"/>
<path d="M10.4452 19.62L10.4302 26.655C10.4302 28.56 11.9002 30.6 13.7002 31.2L18.4852 32.79C19.3102 33.06 20.6752 33.06 21.5152 32.79L26.3002 31.2C28.1002 30.6 29.5702 28.56 29.5702 26.655V19.695" stroke="white" stroke-width="2.5" stroke-linecap="round" stroke-linejoin="round"/>
<path d="M34.1006 22.5V13.5" stroke="white" stroke-width="2.5" stroke-linecap="round" stroke-linejoin="round"/>
</g>
<defs>
<filter id="filter0_d_158_5460" x="-2" y="1.52588e-05" width="44" height="44" filterUnits="userSpaceOnUse" color-interpolation-filters="sRGB">
<feFlood flood-opacity="0" result="BackgroundImageFix"/>
<feColorMatrix in="SourceAlpha" type="matrix" values="0 0 0 0 0 0 0 0 0 0 0 0 0 0 0 0 0 0 127 0" result="hardAlpha"/>
<feOffset dy="4"/>
<feGaussianBlur stdDeviation="2"/>
<feComposite in2="hardAlpha" operator="out"/>
<feColorMatrix type="matrix" values="0 0 0 0 0 0 0 0 0 0 0 0 0 0 0 0 0 0 0.25 0"/>
<feBlend mode="normal" in2="BackgroundImageFix" result="effect1_dropShadow_158_5460"/>
<feBlend mode="normal" in="SourceGraphic" in2="effect1_dropShadow_158_5460" result="shape"/>
</filter>
</defs>
</svg>
