<svg width="19" height="15" viewBox="0 0 19 15" fill="none" xmlns="http://www.w3.org/2000/svg">
<path d="M0.286966 6.97732C2.23071 5.95671 4.40047 5.1049 6.42778 4.24873C9.91554 2.8464 13.4172 1.46837 16.9541 0.185436C17.6423 -0.0331632 18.8788 -0.246941 19 0.725197C18.9336 2.10125 18.6605 3.46924 18.4732 4.83723C17.9977 7.84558 17.4482 10.8436 16.9123 13.8421C16.7276 14.8408 15.4151 15.3578 14.5753 14.7187C12.557 13.4191 10.5231 12.1322 8.53061 10.8025C7.87791 10.1703 8.48315 9.26244 9.06608 8.81098C10.7284 7.24935 12.4914 5.92257 14.0668 4.28024C14.4918 3.30196 13.2361 4.12642 12.822 4.37903C10.5462 5.87396 8.32616 7.46016 5.92681 8.77399C4.70122 9.41711 3.27277 8.86751 2.04774 8.50864C0.949338 8.07514 -0.660222 7.6384 0.286855 6.97739L0.286966 6.97732Z" fill="#A9B5D4"/>
</svg>
