<svg width="15" height="15" viewBox="0 0 15 15" fill="none" xmlns="http://www.w3.org/2000/svg">
<path d="M13.1606 4.48797C13.1664 4.61997 13.1664 4.74597 13.1664 4.87797C13.1722 8.87998 10.2319 13.5 4.85489 13.5C3.26899 13.5 1.71202 13.026 0.375 12.138C0.606519 12.168 0.838038 12.18 1.06956 12.18C2.38343 12.18 3.66257 11.724 4.69862 10.878C3.44842 10.854 2.3487 10.008 1.96669 8.77198C2.40658 8.86199 2.85804 8.84399 3.28635 8.71798C1.92618 8.44198 0.94801 7.19998 0.942222 5.75398C0.942222 5.74198 0.942222 5.72998 0.942222 5.71798C1.34738 5.95198 1.80463 6.08398 2.26767 6.09598C0.988526 5.20797 0.589155 3.43797 1.36474 2.05196C2.85225 3.94797 5.04011 5.09397 7.39003 5.21997C7.15272 4.16997 7.47685 3.06597 8.23507 2.32196C9.41003 1.17596 11.2622 1.23596 12.3735 2.45396C13.0275 2.32196 13.6584 2.06996 14.2314 1.71596C14.0115 2.41796 13.5542 3.01197 12.9465 3.38997C13.5253 3.31797 14.0925 3.15597 14.625 2.91597C14.2314 3.52797 13.7337 4.05597 13.1606 4.48797Z" fill="#A9B5D4"/>
</svg>
