<svg width="33" height="33" viewBox="0 0 33 33" fill="none" xmlns="http://www.w3.org/2000/svg">
<path d="M24.0487 13.2L7.7 23.0588C6.7375 23.6363 5.5 22.9488 5.5 21.8213V10.8213C5.5 6.0225 10.6837 3.025 14.85 5.4175L21.1612 9.0475L24.035 10.6975C24.9837 11.2613 24.9975 12.6363 24.0487 13.2Z" fill="white"/>
<path d="M24.8737 21.2575L19.305 24.475L13.75 27.6788C11.7562 28.82 9.50123 28.5863 7.86498 27.4313C7.06748 26.8813 7.16373 25.6575 8.00248 25.1625L25.4787 14.685C26.3037 14.19 27.39 14.6575 27.5412 15.6063C27.885 17.7375 27.005 20.0338 24.8737 21.2575Z" fill="white"/>
</svg>
